<svg xmlns="http://www.w3.org/2000/svg" width="124" height="29" viewBox="0 0 124 29">
  <g id="コンポーネント_8_1" data-name="コンポーネント 8 – 1" transform="translate(0 0.5)">
    <path id="パス_8" data-name="パス 8" d="M3.946-4.425A2.282,2.282,0,0,0,4.5-2.785,1.843,1.843,0,0,0,5.972-2.2a1.914,1.914,0,0,0,1.491-.588A2.348,2.348,0,0,0,8-4.425a2.335,2.335,0,0,0-.535-1.632,1.916,1.916,0,0,0-1.491-.6,1.845,1.845,0,0,0-1.473.6A2.269,2.269,0,0,0,3.946-4.425Zm-2.777-9.2H4.157v4.645q0,.686-.018.941-.035.449-.07.642A3.436,3.436,0,0,1,5.324-8.744a3.591,3.591,0,0,1,1.838-.415,3.619,3.619,0,0,1,2.884,1.292,5.167,5.167,0,0,1,1.1,3.437,5.159,5.159,0,0,1-1.1,3.472,3.725,3.725,0,0,1-2.99,1.3A3.083,3.083,0,0,1,5.394-.105,4.1,4.1,0,0,1,4.052-1.441V0H1.169ZM19.336-4.412a2.291,2.291,0,0,0-.5-1.564,1.742,1.742,0,0,0-1.354-.571,1.692,1.692,0,0,0-1.354.571,2.251,2.251,0,0,0-.5,1.564,2.3,2.3,0,0,0,.483,1.547,1.767,1.767,0,0,0,1.371.58,1.767,1.767,0,0,0,1.371-.58A2.339,2.339,0,0,0,19.336-4.412Zm3.111,0a4.4,4.4,0,0,1-.378,1.819,4.749,4.749,0,0,1-1.081,1.547A5.11,5.11,0,0,1,19.389,0a5.115,5.115,0,0,1-1.907.343A5.072,5.072,0,0,1,15.574,0a4.951,4.951,0,0,1-1.6-1.042,4.208,4.208,0,0,1-1.059-1.551,4.284,4.284,0,0,1-.378-1.819,4.521,4.521,0,0,1,.378-1.837A4.385,4.385,0,0,1,13.975-7.8a4.9,4.9,0,0,1,1.6-1.028,5.235,5.235,0,0,1,1.907-.334,5.28,5.28,0,0,1,1.907.334,4.9,4.9,0,0,1,1.6,1.028,4.1,4.1,0,0,1,1.081,1.547A4.521,4.521,0,0,1,22.447-4.412ZM24.249,0V-8.877h2.865v1.8a4.421,4.421,0,0,1,1.44-1.582,3.644,3.644,0,0,1,1.958-.5,4.23,4.23,0,0,1,1.545.264,2.878,2.878,0,0,1,1.084.809A2.789,2.789,0,0,1,33.644-7a9.931,9.931,0,0,1,.15,1.925V0H30.647V-4.755A2.677,2.677,0,0,0,30.306-6.3a1.268,1.268,0,0,0-1.113-.483,1.56,1.56,0,0,0-1.42.721,4.613,4.613,0,0,0-.447,2.338V0ZM35.517,3.92l2.5-5.273L34.436-8.877h3.472l1.239,3.208a4.58,4.58,0,0,1,.255.756q.1.325.167.65a5.451,5.451,0,0,1,.158-.668,4.461,4.461,0,0,1,.255-.738l1.257-3.208h3.349L39.006,3.92ZM48.375-4.425a2.282,2.282,0,0,0,.552,1.64A1.843,1.843,0,0,0,50.4-2.2a1.914,1.914,0,0,0,1.491-.588,2.348,2.348,0,0,0,.535-1.64,2.335,2.335,0,0,0-.535-1.632,1.916,1.916,0,0,0-1.491-.6,1.845,1.845,0,0,0-1.473.6A2.269,2.269,0,0,0,48.375-4.425Zm-2.777-9.2h2.988v4.645q0,.686-.018.941-.035.449-.07.642a3.436,3.436,0,0,1,1.254-1.349,3.591,3.591,0,0,1,1.838-.415,3.619,3.619,0,0,1,2.884,1.292,5.167,5.167,0,0,1,1.1,3.437,5.159,5.159,0,0,1-1.1,3.472,3.725,3.725,0,0,1-2.99,1.3,3.083,3.083,0,0,1-1.662-.448A4.1,4.1,0,0,1,48.48-1.441V0H45.6ZM63.765-4.412a2.291,2.291,0,0,0-.5-1.564,1.742,1.742,0,0,0-1.354-.571,1.692,1.692,0,0,0-1.354.571,2.251,2.251,0,0,0-.5,1.564,2.3,2.3,0,0,0,.483,1.547,1.767,1.767,0,0,0,1.371.58,1.767,1.767,0,0,0,1.371-.58A2.339,2.339,0,0,0,63.765-4.412Zm3.111,0A4.4,4.4,0,0,1,66.5-2.593a4.749,4.749,0,0,1-1.081,1.547A5.11,5.11,0,0,1,63.817,0,5.115,5.115,0,0,1,61.91.343,5.072,5.072,0,0,1,60,0a4.951,4.951,0,0,1-1.6-1.042A4.208,4.208,0,0,1,57.34-2.593a4.284,4.284,0,0,1-.378-1.819,4.521,4.521,0,0,1,.378-1.837A4.385,4.385,0,0,1,58.4-7.8,4.9,4.9,0,0,1,60-8.824a5.235,5.235,0,0,1,1.907-.334,5.28,5.28,0,0,1,1.907.334,4.9,4.9,0,0,1,1.6,1.028A4.1,4.1,0,0,1,66.5-6.249,4.521,4.521,0,0,1,66.876-4.412Zm8.587-.013a2.332,2.332,0,0,0-.536-1.632,2,2,0,0,0-1.512-.6,1.923,1.923,0,0,0-1.494.6,2.327,2.327,0,0,0-.545,1.632,2.34,2.34,0,0,0,.545,1.64,1.92,1.92,0,0,0,1.494.588,1.994,1.994,0,0,0,1.512-.588A2.345,2.345,0,0,0,75.463-4.425Zm2.777-9.2V0H75.357V-1.441A4.071,4.071,0,0,1,74-.105a3.007,3.007,0,0,1-1.652.448,3.716,3.716,0,0,1-2.975-1.3A5.162,5.162,0,0,1,68.265-4.43a5.157,5.157,0,0,1,1.116-3.437,3.6,3.6,0,0,1,2.865-1.292,3.568,3.568,0,0,1,1.828.415A3.676,3.676,0,0,1,75.34-7.394q-.035-.238-.07-.721-.035-.528-.035-.862v-4.645ZM80.077,3.92l2.5-5.273L79-8.877h3.472l1.239,3.208a4.58,4.58,0,0,1,.255.756q.1.325.167.65a5.451,5.451,0,0,1,.158-.668,4.461,4.461,0,0,1,.255-.738L85.8-8.877h3.349L83.566,3.92Zm9.958-5.357a1.7,1.7,0,0,1,.5-1.254A1.71,1.71,0,0,1,91.793-3.2a1.742,1.742,0,0,1,1.283.509,1.7,1.7,0,0,1,.5,1.254,1.709,1.709,0,0,1-.5,1.262,1.783,1.783,0,0,1-1.283.517,1.752,1.752,0,0,1-1.257-.517A1.709,1.709,0,0,1,90.035-1.437Z" transform="translate(0 20)" fill="#36c"/>
    <g id="グループ_24" data-name="グループ 24" transform="translate(-481 -79)">
      <line id="線_8" data-name="線 8" x2="80" transform="translate(481 79)" fill="none" stroke="#ffe627" stroke-width="1"/>
      <line id="線_9" data-name="線 9" x1="32" transform="translate(573 79)" fill="none" stroke="#36c" stroke-width="1"/>
    </g>
    <g id="グループ_25" data-name="グループ 25" transform="translate(0 28)">
      <line id="線_8-2" data-name="線 8" x1="80" transform="translate(44)" fill="none" stroke="#ffe627" stroke-width="1"/>
      <line id="線_9-2" data-name="線 9" x2="32" fill="none" stroke="#36c" stroke-width="1"/>
    </g>
    <path id="パス_9" data-name="パス 9" d="M1.151,0V-8.877H4.017v1.8a4.421,4.421,0,0,1,1.44-1.582,3.644,3.644,0,0,1,1.958-.5,4.23,4.23,0,0,1,1.545.264,2.878,2.878,0,0,1,1.084.809A2.789,2.789,0,0,1,10.546-7,9.931,9.931,0,0,1,10.7-5.08V0H7.55V-4.755A2.677,2.677,0,0,0,7.208-6.3a1.268,1.268,0,0,0-1.113-.483,1.56,1.56,0,0,0-1.42.721,4.613,4.613,0,0,0-.447,2.338V0ZM19.02-5.581a1.873,1.873,0,0,0-.571-1.2,1.686,1.686,0,0,0-1.2-.466,1.76,1.76,0,0,0-1.213.413,2.144,2.144,0,0,0-.606,1.257ZM22.1-3.814h-6.75a2.379,2.379,0,0,0,.519,1.582,1.891,1.891,0,0,0,1.477.563,2.487,2.487,0,0,0,1.2-.272,1.718,1.718,0,0,0,.738-.791l2.355.949A3.027,3.027,0,0,1,20.153-.22a5.6,5.6,0,0,1-2.628.563A5.27,5.27,0,0,1,13.8-.958a4.342,4.342,0,0,1-1.4-3.384A4.674,4.674,0,0,1,13.8-7.8,4.877,4.877,0,0,1,17.35-9.158a4.494,4.494,0,0,1,3.472,1.38,4.583,4.583,0,0,1,.967,1.657A6.784,6.784,0,0,1,22.1-3.964ZM24.39,0l-.018-6.662H23.045V-8.877h1.327v-2.646h3.111v2.646h1.31v2.215h-1.31V0Z" transform="translate(95 20)" fill="#ffe627"/>
  </g>
</svg>
